<?xml version="1.0" encoding="utf-8"?>
<!-- Generator: Adobe Illustrator 16.0.0, SVG Export Plug-In . SVG Version: 6.00 Build 0)  -->
<!DOCTYPE svg PUBLIC "-//W3C//DTD SVG 1.1//EN" "http://www.w3.org/Graphics/SVG/1.1/DTD/svg11.dtd">
<svg version="1.1" id="Layer_1" xmlns="http://www.w3.org/2000/svg" xmlns:xlink="http://www.w3.org/1999/xlink" x="0px" y="0px"
	 width="500px" height="500px" viewBox="0 0 500 500" enable-background="new 0 0 500 500" xml:space="preserve">
<g>
	<g>
		<path id="SVGID_1_" fill="#1D5190" d="M335.571,104.456h-3.599V28.991c3.148,7.639,3.599,15.277,3.599,21.562V104.456z
			 M192.725,74.362c4.49,1.349,9.432,2.248,14.821,2.698v-3.598c-4.49-0.449-9.432-1.349-13.922-2.692
			c-5.841-1.349-11.23-2.698-16.621-2.698c-2.698,0-5.39,0.45-7.639,1.349v4.041c1.799-0.899,4.491-1.349,7.639-1.349
			C181.943,71.664,187.334,73.013,192.725,74.362z M149.152,71.664c3.142,0,5.84,0.449,7.632,1.349v-4.042
			c-2.242-0.899-4.94-1.349-7.632-1.349c-5.391,0-10.781,1.349-16.621,2.698c-4.491,1.343-8.988,2.243-13.923,2.692v3.597
			c4.935-0.45,9.882-1.349,14.822-2.698C139.271,73.013,144.212,71.664,149.152,71.664z M149.152,62.682
			c3.142,0,5.84,0.899,7.632,1.349v-4.042c-2.242-0.899-4.94-0.899-7.632-1.349c-5.391,0-10.781,1.349-16.621,2.692
			c-4.491,1.349-8.988,2.248-13.923,2.698v3.592c5.385-0.443,9.882-1.343,14.822-2.692
			C139.271,63.581,144.212,62.232,149.152,62.682z M149.152,81.101c3.142,0,5.84,0.45,7.632,1.343v-4.042
			c-2.242-0.893-4.94-0.893-7.632-1.343c-5.391,0-10.781,1.343-16.621,2.692c-4.491,1.349-8.988,2.249-13.923,2.692v3.598
			c5.385-0.449,9.882-1.798,14.822-2.698C139.271,82.001,144.212,80.652,149.152,81.101z M149.152,53.25
			c3.142,0,5.84,0.899,7.632,1.349v-4.047c-2.242-0.894-4.94-1.344-7.632-1.344c-5.391,0-10.781,1.344-16.621,2.692
			c-4.491,1.349-8.988,2.249-13.923,2.698v3.592c4.935-0.45,9.882-1.349,14.822-2.692C139.271,54.6,144.212,53.25,149.152,53.25z
			 M124.893,328.162C80.421,254.94,81.32,183.518,81.32,174.536V1.596h336.897v172.94c0,8.982,0.9,80.405-43.571,153.626
			c-39.525,66.482-99.274,95.677-124.877,104.66C224.616,423.839,164.873,394.645,124.893,328.162z M214.735,314.685l-8.987-7.184
			l4.94-10.792l-11.675,2.248l-4.94-10.331l-5.396,10.331l-11.225-2.248l4.941,10.792l-8.988,7.184l11.23,2.686v11.691l9.438-7.194
			l8.982,7.194V317.37L214.735,314.685z M262.804,387.9l11.218-5.396l-11.218-4.935l4.035-11.681l-11.68,4.497l-4.94-11.229
			l-4.94,10.78l-11.68-4.497l4.497,11.68l-11.23,4.946l11.23,5.385l-4.497,11.68l11.68-4.485l4.94,11.219l4.94-11.219l11.68,4.485
			L262.804,387.9z M238.096,254.041l-8.988,7.639l11.23,2.692v11.674l8.981-7.183l9.438,7.183l0.45-11.674l11.229-2.692
			l-8.981-7.639l4.935-10.781l-11.681,2.243l-4.939-10.331l-4.94,10.331l-11.681-2.243L238.096,254.041z M277.62,327.713
			l6.745-7.195l-9.894-1.798l-4.484-8.971l-4.497,8.971l-9.882,1.798l7.195,7.195l-1.799,9.881l8.982-4.496l8.982,4.496
			L277.62,327.713z M310.861,292.224l5.384-8.981h-10.318l-4.946-8.994l-4.946,8.994h-10.319l5.385,8.981l-5.385,8.981h10.319
			l4.946,8.994l4.946-8.994h10.318L310.861,292.224z M389.924,75.711c-2.698,1.349-4.947,3.592-6.296,6.29
			c-1.35,2.243-1.799,4.491-1.799,6.739c0,0.444,0,0.894,0,1.793c1.349-0.899,2.698-1.793,4.047-2.692
			c0.899-0.899,1.799-2.248,2.698-3.148c0.899-1.798,1.35-4.491,1.35-6.733C389.924,77.06,389.924,76.161,389.924,75.711z
			 M354.884,127.366c2.686,1.349,5.833,1.798,8.981,1.349s5.396-1.799,7.645-4.041c-2.698-1.349-5.396-1.799-8.545-1.349
			C359.818,123.774,357.132,125.573,354.884,127.366z M354.884,122.426c1.349-2.243,2.248-4.941,2.248-7.633c0-0.45,0-0.45,0-0.899
			c-2.698,1.343-4.946,3.142-6.733,5.39l0,0c-1.35,2.249-2.248,4.94-2.248,7.633c0,0.45,0,0.45,0,0.899
			C351.297,126.916,353.534,125.123,354.884,122.426z M358.469,121.532C358.469,121.532,358.469,121.976,358.469,121.532
			c0.9,0,1.35,0,1.799-0.45c1.799-1.349,2.697-3.148,3.598-5.396c0.45-1.343,0.899-3.142,0.899-4.491
			c0-1.343-0.449-2.692-0.899-4.042c-1.799,1.349-3.148,2.698-4.047,4.491C359.818,115.686,359.369,118.833,358.469,121.532z
			 M367.014,114.343C367.014,114.792,367.014,114.792,367.014,114.343c0.899,0,1.348-0.45,1.798-0.899
			c1.35-1.799,1.799-3.592,2.248-5.84c0-0.45,0-0.899,0-1.349c0-2.242-0.898-4.94-2.248-7.183c-1.349,1.792-2.698,3.592-3.148,5.384
			C367.014,108.502,367.463,111.195,367.014,114.343z M373.297,105.355C373.297,105.804,373.297,105.804,373.297,105.355
			c0.899,0,1.35-0.45,1.798-1.343c0.45-1.349,0.899-2.698,0.899-4.492c0-0.449,0-1.349,0-1.798
			c-0.449-2.698-1.798-5.391-4.034-7.639c-0.9,1.798-1.35,4.041-1.35,5.84C371.96,99.521,372.859,102.213,373.297,105.355z
			 M377.793,95.024C377.793,95.473,377.793,95.473,377.793,95.024c0.899-0.45,0.899-0.9,1.35-1.799c0-0.444,0-0.444,0-0.894
			c0-1.799-0.45-3.592-0.899-5.39c-0.898-2.698-3.148-4.498-5.834-6.29c-0.449,0.899-0.449,2.243-0.449,3.142
			c0,0.899,0,1.799,0.449,2.698C375.095,89.634,376.895,92.332,377.793,95.024z M379.58,84.244L379.58,84.244
			c0.45-0.45,0.899-1.349,0.899-1.799c-0.449-2.242-0.899-4.042-2.236-5.834c-1.799-2.248-4.047-4.047-7.184-4.946
			c0,2.249,0.45,4.497,1.35,6.295C375.545,79.303,377.793,81.551,379.58,84.244z M379.143,71.22
			c-0.899-2.249-1.798-4.041-3.598-5.39c-2.248-1.799-4.485-2.698-7.632-3.148c0.448,2.249,1.349,4.047,2.697,5.391
			c3.136,0.899,5.834,2.698,8.082,4.491h0.45C379.143,72.563,379.143,72.113,379.143,71.22z M375.545,62.682
			c0-0.899-0.45-1.349-0.45-2.242c-1.349-1.799-2.686-3.148-4.484-4.042c-2.697-1.349-5.396-1.798-8.544-1.349
			c1.349,1.793,2.249,3.592,4.047,4.94C369.711,59.989,372.859,60.883,375.545,62.682L375.545,62.682z M373.746,120.183
			c2.698-0.899,4.946-3.147,6.733-5.84c-3.135-0.45-6.283-0.45-8.97,0.45c-2.248,0.894-4.496,3.142-6.295,5.39
			c1.349,0,3.146,0.45,4.496,0.899C371.06,121.082,372.409,121.082,373.746,120.183z M381.379,109.852
			c2.249-1.799,4.048-4.497,5.396-7.639c-3.147,0-6.296,0.899-8.532,2.692l0,0c-2.249,1.799-4.047,4.047-4.946,6.739
			c1.35-0.45,3.147-0.45,4.496-0.45C379.143,111.195,380.479,110.751,381.379,109.852z M389.474,89.184
			c-2.698,0.9-5.396,2.249-7.645,4.492c-1.799,2.248-2.687,4.946-3.137,8.088c1.338-0.449,2.687-0.899,4.485-1.349
			c1.35-0.894,2.249-1.792,3.148-2.692C388.574,95.473,389.474,92.332,389.474,89.184z M386.775,62.232
			c-2.248,2.249-4.047,4.497-4.946,7.639c-0.45,0.899-0.45,2.242-0.45,3.591c0,1.799,0.45,3.598,0.899,4.94
			c0.899-1.343,2.249-2.242,3.148-3.141c0.899-1.349,1.349-2.698,1.799-4.042c0.449-0.899,0.449-2.249,0.449-3.148
			C388.124,66.279,387.675,64.481,386.775,62.232z M377.793,58.641c0,2.692,0.899,5.39,2.687,8.088
			c0.45-1.349,1.35-2.698,2.249-4.047c0.449-1.349,0.899-2.692,0.899-4.041l0,0c0-3.142-0.899-5.84-2.698-8.538
			C379.143,52.801,377.793,55.499,377.793,58.641L377.793,58.641z M370.61,45.617c0,0.894,0,2.243,0.449,3.143
			c0.45,2.692,2.237,4.94,4.485,7.189c0.449-1.349,0.899-3.148,1.35-4.497c0-0.45,0-0.45,0-0.899c0-0.894,0-1.793-0.45-3.142
			c-0.899-2.692-2.248-5.391-4.935-7.639C371.06,41.57,370.61,43.369,370.61,45.617z M369.262,51.002
			c-1.799-1.343-3.599-2.242-5.396-3.142c-2.698-0.9-5.847-0.45-8.532,0.449c1.349,1.793,3.136,3.142,4.935,4.041
			c3.147-0.449,6.746-0.449,9.443,0.45h0.45C369.711,52.351,369.711,51.901,369.262,51.002z M360.717,33.938
			c0,2.243,0.45,4.491,1.35,6.733c1.349,2.698,3.597,4.498,6.295,5.84c0-1.793,0-3.142,0.45-4.941
			c-0.45-1.349-0.45-2.692-1.349-3.592c-1.35-2.698-3.598-4.94-6.296-6.29C360.717,32.588,360.717,33.038,360.717,33.938z
			 M349.049,34.837c0.899,3.142,2.687,5.834,4.936,7.183c2.248,1.349,4.935,2.248,7.633,2.698c-0.9-0.899-1.35-1.799-2.248-3.148
			l0,0c-0.45-0.899-0.9-2.249-1.351-3.142c-0.449-0.45-0.449-0.45-0.887-0.899C355.333,35.73,352.635,34.837,349.049,34.837z
			 M314.009,105.355c0,2.249,1.787,4.947,5.835,4.947h7.645c-0.9,2.692-1.799,6.733-1.799,10.78c0,5.384,0.898,9.881,2.698,13.023
			c-5.846-0.899-9.895-2.243-13.94-4.491h-0.438l-0.899,2.248h0.45c3.586,1.793,6.733,2.692,10.78,4.042c0,0,3.148,0.45,5.396,0.894
			c-0.45,0.449-0.899,1.349-0.899,2.248c0,1.799,1.338,3.148,3.136,3.148c1.799,0,3.148-1.349,3.148-3.148
			c0-0.899-0.45-1.799-0.9-2.248c2.237-0.444,4.936-0.894,4.936-0.894c4.048-0.899,7.645-1.798,11.242-4.042h0.45l-0.9-2.698h-0.449
			c-4.047,2.249-8.095,3.592-13.928,4.491c1.336-3.142,2.686-7.639,2.686-13.023c0-4.047-0.449-8.088-1.799-10.781h7.645
			c4.048,0,5.846-2.248,5.846-4.946c0-1.793-1.349-3.591-3.598-3.591c-1.799,0-3.597,1.349-3.597,3.591c0,0.45,0,0.899,0.45,1.349
			c0.448,0.45,0.448,1.349-0.9,1.349h-4.496V50.553c0-7.633-0.45-17.065-4.935-26.053l-1.351-2.692l-1.348,2.692
			c-4.485,8.988-4.936,18.419-4.936,26.053v57.051h-4.496c-1.35,0-0.899-0.899-0.899-1.349c0-0.45,0.449-0.899,0.449-1.349
			c0-1.793-1.35-3.591-3.147-3.591C315.796,101.763,314.009,103.562,314.009,105.355z M304.577,112.094
			c-0.898-1.792-2.248-3.142-4.047-4.491c-0.45,1.349-0.899,2.698-0.899,4.041c0,1.349,0.449,3.148,0.899,4.491
			c0.45,2.249,1.799,3.598,3.148,5.396c0.449,0,1.349,0.444,1.798,0.444v-0.444C304.577,118.833,304.128,115.686,304.577,112.094z
			 M301.879,55.049c-2.698-0.449-5.845,0-8.543,1.349c-1.787,0.894-3.587,2.243-4.485,4.042c0,0.894,0,1.343-0.449,2.242h0.449
			c2.698-1.798,5.834-2.692,9.432-2.692C299.631,58.641,300.98,56.842,301.879,55.049z M298.732,104.905
			c-0.45-1.793-1.8-3.591-3.148-5.385c-1.35,2.243-2.248,4.492-2.248,7.184c0,0.449,0,0.899,0,1.349c0,2.249,0.898,4.042,2.248,5.84
			c0.45,0.45,1.349,0.899,1.799,1.343v-0.443C296.933,111.195,297.383,108.502,298.732,104.905z M288.401,99.971
			c0,1.343,0.449,2.692,0.898,4.485c0.449,0.45,0.899,0.899,1.35,1.349c0,0,0-0.449,0.45-0.449c0.449-3.142,1.336-6.284,3.135-8.982
			c0-2.249-0.898-4.042-1.799-5.84c-2.236,2.249-3.585,4.94-4.034,7.639C288.401,98.622,288.401,99.521,288.401,99.971z
			 M291.998,87.391c0.438-0.899,0.438-1.798,0.438-2.698c0-0.899-0.438-2.249-0.438-3.142c-2.698,1.792-4.497,3.591-5.834,6.29
			c-0.899,1.793-0.899,3.591-0.899,5.384c0,0.45,0,0.45,0,0.899c0.45,0.45,0.899,1.349,0.899,1.799c0,0,0.438,0,0.438-0.45
			C287.501,92.332,289.3,89.634,291.998,87.391z M285.265,71.22c0,0.444,0,1.343,0,1.793h0.45c2.236-2.243,4.935-3.592,8.07-4.491
			c1.349-1.793,2.249-3.592,2.698-5.39c-3.147,0.449-5.834,1.349-8.082,3.147C287.051,67.179,285.715,69.421,285.265,71.22z
			 M283.916,82.444c0.449,0.45,0.449,1.349,0.449,2.249c0,0,0,0,0.449,0c1.787-2.692,4.036-4.941,7.184-6.29
			c0.888-1.792,1.338-4.041,1.338-6.29c-3.137,0.9-5.385,2.698-7.172,4.947C284.814,78.403,283.916,80.202,283.916,82.444z
			 M282.116,93.675c-1.798-2.243-4.496-3.592-7.645-4.492c0.45,3.148,1.35,5.84,3.148,8.089c0.899,0.899,2.248,1.799,3.147,2.698
			c1.349,0.443,2.698,0.893,4.047,1.343C284.814,98.622,283.916,95.923,282.116,93.675z M277.62,102.213
			c0.899,3.142,2.698,5.84,4.946,7.639c0.899,0.899,2.248,1.343,3.598,1.793c1.787,0,3.136,0,4.485,0.45
			c-1.35-2.692-2.698-5.39-4.935-6.739l0,0C283.916,103.112,280.768,102.213,277.62,102.213z M283.916,114.792
			c1.799,2.692,3.585,4.491,6.733,5.84c1.349,0.45,2.687,0.899,4.035,0.899c1.35-0.45,3.147-0.45,4.496-0.899
			c-1.798-2.248-4.047-4.497-6.295-5.396C290.199,113.893,287.051,113.893,283.916,114.792z M292.886,125.123
			c2.248,2.243,4.946,3.592,8.095,4.042c2.698,0.45,5.845-0.45,8.532-1.349c-2.237-2.243-4.936-3.592-8.082-4.041l0,0
			C298.732,122.875,295.584,123.774,292.886,125.123z M316.245,127.815c0-0.449,0-0.449,0-0.899c0-2.692-0.898-5.384-2.236-7.633
			l0,0c-1.799-2.248-4.047-4.047-6.733-5.39c0,0.45,0,0.45,0,0.899c0,2.692,0.888,5.39,2.237,7.633
			C310.861,125.123,313.109,126.916,316.245,127.815z M304.577,41.57c-0.449,0.9-1.349,2.249-2.248,3.148
			c2.698,0,5.396-0.899,7.633-2.698c2.248-1.799,4.047-4.491,5.385-7.183c-3.137,0-6.284,0.894-8.521,2.692
			c-0.448,0.449-0.448,0.449-0.898,0.899C305.477,39.322,305.027,40.671,304.577,41.57L304.577,41.57z M295.584,41.57
			c0.45,1.799,0.45,3.148,0.45,4.941c2.698-1.343,4.946-3.592,5.845-5.84c1.35-2.242,1.8-4.491,1.8-6.733
			c0-0.899,0-1.349-0.45-2.249c-2.698,1.349-4.946,3.591-6.296,6.29C296.483,39.322,296.034,40.221,295.584,41.57z M294.234,53.25
			C294.234,53.25,294.685,53.25,294.234,53.25c3.598-0.9,6.746-0.9,9.894-0.45c1.799-0.899,3.597-2.248,4.935-4.041
			c-2.686-0.899-5.834-1.349-8.532-0.45c-2.248,0.45-4.047,1.349-5.396,3.142C294.685,51.901,294.685,52.351,294.234,53.25z
			 M287.051,50.553c0,0.449,0,0.449,0,0.899c0.9,1.349,1.351,3.148,1.351,4.497c2.248-2.249,3.597-4.497,4.484-7.189
			c0.45-0.899,0.45-2.249,0.45-3.143c0-1.798-0.45-4.047-1.338-5.845c-2.249,2.248-4.047,4.496-4.947,7.639
			C287.501,48.31,287.051,49.209,287.051,50.553z M280.768,58.641c0,1.349,0.45,2.692,0.899,4.041
			c0.899,1.349,1.799,2.698,2.249,4.047c1.349-2.248,2.686-4.946,2.686-8.088l0,0c0-2.692-1.337-5.84-2.686-8.538
			C282.116,52.801,280.768,55.499,280.768,58.641L280.768,58.641z M276.271,68.072c0,1.349,0,2.249,0.448,3.148
			c0.45,1.343,0.9,2.692,1.8,4.042c1.349,0.899,2.248,1.798,3.147,3.141c0.449-1.792,0.899-3.591,0.899-4.94s0-2.242-0.45-3.591
			c-0.898-2.692-2.698-5.39-4.946-7.639C276.72,64.031,276.271,66.279,276.271,68.072z M274.021,77.51c0,2.242,0.45,4.935,1.8,6.734
			c0.45,1.349,1.349,2.248,2.698,3.147c1.349,0.45,2.698,1.349,4.047,2.243c0-0.45,0-1.343,0-1.793c0-2.248-0.45-4.497-1.799-6.74
			c-1.35-2.698-3.598-4.94-6.746-6.29C274.021,76.161,274.021,77.06,274.021,77.51z M164.873,112.994
			c3.142-2.243,7.189-3.142,12.13-3.142c5.391,0,10.78,0.899,16.621,2.692c5.834,1.349,12.573,3.142,18.862,2.692
			c0-3.142,0-66.027,0-77.707c0-0.9,0-1.349,0-1.799c-6.738,0.45-13.473-1.343-19.762-2.692c-5.391-1.349-10.781-2.698-15.272-2.248
			c-6.739,0-10.337,2.248-12.579,4.047v2.692V112.994z M114.112,114.792c6.289,0.443,12.579-0.899,18.868-2.698
			c5.841-1.343,11.231-2.692,16.621-2.692c4.94,0,8.982,1.349,12.13,3.142V37.529v-2.692c-2.249-2.249-5.84-4.047-12.579-4.047
			c-4.94,0-9.882,0.899-15.272,2.248c-6.289,1.799-12.579,3.142-19.768,2.692c0,0.45,0,0.899,0,1.799
			C114.112,48.76,114.112,112.094,114.112,114.792z M101.982,127.366c0,0,52.56,0,54.353,0c1.35,2.248,3.598,4.047,6.739,4.047
			c3.148,0,5.841-1.799,6.739-4.047c1.8,0,54.354,0,54.354,0V37.529h-1.799h-4.94l0.449,1.792v0.45v81.31
			c-4.041,0-48.063,0-50.312,0c-0.894,1.344-1.793,1.792-4.491,1.792c-2.242,0-3.142-0.449-4.041-1.792c-2.249,0-42.673,0-50.762,0
			v-81.31v-0.45l0.45-1.792h-6.739V127.366z M121.751,307.501L249.77,192.5l128.474,115.452
			c8.532-16.178,14.379-31.905,19.313-46.722L249.77,128.265L102.433,260.781C106.929,275.597,113.213,291.324,121.751,307.501z
			 M149.152,90.083c3.142,0,5.84,0.449,7.632,1.349v-4.041c-2.242-0.899-4.94-0.899-7.632-1.349c-5.391,0-10.781,1.349-16.621,2.698
			c-4.491,1.344-8.988,2.243-13.923,2.692v3.592c4.935-0.45,9.882-1.799,14.822-2.692C139.271,91.432,144.212,90.083,149.152,90.083
			z M149.152,99.521c3.142,0,5.84,0.45,7.632,1.343v-4.042c-2.242-0.899-4.94-1.349-7.632-1.349c-5.391,0-10.781,1.349-16.621,2.698
			c-4.491,1.349-8.988,2.243-13.923,2.692v3.592c4.935-0.443,9.882-1.792,14.822-2.692
			C139.271,100.414,144.212,99.071,149.152,99.521z M149.152,44.268c3.142,0,5.84,0.9,7.632,1.349V41.57
			c-2.242-0.899-4.94-0.899-7.632-1.349c-5.391,0-10.781,1.349-16.621,2.698c-4.491,1.349-8.988,2.249-13.923,2.698v3.592
			c4.935-0.449,9.882-1.349,14.822-2.698C139.271,45.168,144.212,44.268,149.152,44.268z M192.725,65.38
			c4.49,1.349,9.432,2.243,14.821,2.692v-3.591c-4.49-0.45-9.432-1.349-13.922-2.698c-5.841-1.343-11.23-2.692-16.621-2.692
			c-2.698,0-5.39,0.45-7.639,1.349v4.042c1.799-0.9,4.491-1.349,7.639-1.349C181.943,62.232,187.334,63.581,192.725,65.38z
			 M192.725,46.96c4.49,1.349,9.432,2.249,14.821,2.698v-3.597c-4.49-0.444-9.432-1.343-13.922-2.692
			c-5.841-1.349-11.23-2.698-16.621-2.698c-2.698,0-5.39,0.45-7.639,1.349v4.042c1.799-0.893,4.491-1.343,7.639-1.343
			C181.943,44.268,187.334,45.168,192.725,46.96z M192.725,83.344c4.49,0.9,9.881,2.249,14.821,2.698v-3.598
			c-4.94-0.443-9.432-1.343-13.922-2.692c-5.841-1.349-11.23-2.692-16.172-2.692c-2.697,0-5.39,0.45-7.639,0.899v4.042
			c1.8-0.9,4.491-1.349,7.639-1.349C181.943,80.652,187.334,82.001,192.725,83.344z M192.725,55.949
			c4.49,1.343,9.432,2.243,14.821,2.692v-3.592c-4.49-0.449-9.432-1.349-13.922-2.698c-5.841-1.349-11.23-2.692-16.621-2.692
			c-2.698,0-5.39,0.444-7.639,1.343v4.047c1.799-0.899,4.491-1.349,7.639-1.349C181.943,53.25,187.334,54.6,192.725,55.949z
			 M192.725,92.781c4.49,1.343,9.432,2.243,14.821,2.692v-3.591c-4.49-0.45-9.432-1.798-13.922-2.698
			c-5.841-1.343-11.23-2.692-16.621-2.692c-2.698,0-5.39,0.45-7.639,1.349v4.041c1.799-0.899,4.491-1.349,7.639-1.349
			C181.943,90.083,187.334,91.432,192.725,92.781z M192.725,101.763c4.49,1.349,9.432,2.249,14.821,2.692v-3.592
			c-4.49-0.45-9.432-1.343-13.922-2.692c-5.841-1.349-11.23-2.698-16.621-2.698c-2.698,0-5.39,0.45-7.639,1.349v4.042
			c1.799-0.893,4.491-1.343,7.639-1.343C181.943,99.071,187.334,100.414,192.725,101.763z M479.316,292.673l-0.899,2.249
			c-8.544,28.294-22.91,56.602-33.253,75.015l-2.236,3.597L428.1,360.055c-0.45,0.888-1.35,2.237-1.799,3.137
			c-37.727,60.198-90.729,103.771-154.077,127.131l-22.454,8.082l-22.461-8.082c-62.886-22.91-116.339-66.933-153.621-127.131
			c-0.45-0.899-0.899-2.249-1.799-3.137l-15.271,13.479l-2.248-4.047c-10.332-18.863-24.254-47.169-33.241-75.015l-0.444-1.799
			l36.383-32.791l4.491-4.041l1.799,5.389c1.793,6.735,4.041,13.019,6.284,19.314l10.337-9.433l4.041-3.597l1.798,5.396
			c7.634,22.897,17.965,44.459,30.094,63.784c31.893,50.755,76.364,87.594,128.919,106.906c0,0,3.597,1.35,5.39,1.8
			c1.799-0.45,5.39-1.8,5.39-1.8c52.555-19.313,97.476-56.151,128.919-106.906c12.13-19.325,22.461-40.887,30.105-63.784
			l1.799-5.396l14.366,13.029c2.248-6.296,4.496-12.579,6.296-19.314l1.786-5.389L479.316,292.673z M50.777,346.576l-6.74-42.673
			l19.769-17.963c-2.248-5.396-4.047-11.243-5.84-17.077c-5.84,5.385-26.058,23.36-28.75,26.059
			C35.056,312.885,42.694,330.86,50.777,346.576z M68.298,353.76c-4.492-7.633-8.988-15.716-12.58-23.798l4.94,30.98
			C62.008,359.156,65.149,356.458,68.298,353.76z M444.276,329.962c-3.598,8.082-8.083,16.165-12.579,23.798l0,0
			c3.147,2.698,5.846,5.396,7.632,7.183L444.276,329.962z M446.962,305.253c-3.135-2.698-22.46-20.213-27.844-25.159
			c-7.633,21.562-17.077,42.224-28.745,60.637c-32.354,52.116-78.163,89.843-132.516,110.055l-8.088,2.698l-7.633-2.698
			c-54.354-19.763-99.725-57.938-132.516-110.055c-11.681-18.413-21.112-39.075-28.751-60.637
			c-5.834,4.946-24.703,22.461-27.845,25.159c7.184,18.862,16.615,37.275,26.952,53.903
			c36.833,58.849,88.938,101.522,150.479,123.982c0,0,17.969,6.284,19.762,7.184c2.248-0.899,20.218-7.184,20.218-7.184
			c61.536-22.46,113.641-65.583,150.479-123.982C430.348,342.979,439.779,324.565,446.962,305.253z M470.772,294.472
			c-2.698-2.698-22.91-20.674-28.745-26.059c-1.798,5.835-3.597,11.681-5.834,17.077l19.763,17.963l-6.745,43.123
			C456.855,330.86,464.938,312.885,470.772,294.472z M83.568,349.274l0.45,1.799l-1.349,0.899c-0.9-1.35-1.35-2.698-2.249-4.498
			c-0.894-1.348-1.793-2.697-2.692-4.496l1.35-0.45l1.343,1.351c1.349-1.351,3.598-3.148,4.497-4.947l-3.148-5.834l-6.29,1.349
			l0.45,1.799l-0.894,0.45c-0.449-1.35-1.349-2.249-1.799-3.598c-0.449-0.9-0.898-1.787-1.799-3.136l1.35-0.45l1.349,1.349
			c4.491,0,13.923-1.799,19.763-2.698c0.899,1.35,2.249,2.249,3.143,3.148l0.449,1.787l-5.84,7.183
			C88.509,343.429,84.918,347.925,83.568,349.274z M87.16,337.145l5.391-5.834l0,0l-8.083,1.787L87.16,337.145z M119.951,370.386
			l0.9-0.899c-0.9-0.899-1.349-1.799-2.243-3.147c-0.899-0.899-1.349-2.249-2.248-3.147l-1.35,0.898l0.899,1.799
			c-3.147,2.249-10.331,8.095-10.331,8.095l0,0c1.8-5.396,4.042-11.691,6.29-17.075c-0.899-0.9-1.349-1.8-2.248-2.698
			c-0.45-0.889-1.35-1.787-1.793-2.687l-0.899,0.899l0.899,1.787c-1.35,1.348-2.698,2.248-4.497,3.597l-4.94,3.585
			c-1.793,1.35-3.142,2.249-4.94,3.148l-1.35-1.349l-0.899,0.898c0.899,0.899,1.35,1.799,2.249,3.148
			c0.899,0.899,1.349,2.248,2.248,3.147l0.899-0.899l-1.349-2.248c3.142-2.249,7.184-5.396,10.78-8.082l0,0
			c-2.248,5.384-4.047,11.229-6.289,17.513c0.449,0.45,0.898,1.35,1.349,1.8c0.449,0.449,0.894,1.349,1.344,1.799
			c1.798-1.35,3.597-3.148,6.289-4.936l4.94-3.597c1.799-1.35,3.598-2.249,4.946-3.148L119.951,370.386z M121.751,387
			c-4.94,4.497-4.491,11.231-0.45,15.278c2.692,2.687,5.391,4.485,10.331,4.935l0.45-2.698c-2.692-0.449-4.94-1.337-6.29-3.136
			c-3.143-3.147-3.143-7.633,0.449-11.23s7.639-2.248,9.882,0.45c1.349,1.348,2.248,3.147,2.248,4.946l-0.899,1.786l0.899,1.35
			c1.349-0.899,3.143-2.236,4.491-2.686c-0.899-2.698-2.249-4.498-4.041-6.746C133.88,383.403,126.691,382.504,121.751,387z
			 M165.323,428.324c-4.041,4.946-10.331,5.396-16.621,0.449c-5.84-4.935-6.739-10.769-2.248-16.614
			c4.047-4.946,10.78-5.396,16.62-0.449C168.915,416.656,169.813,422.94,165.323,428.324z M160.832,414.408
			c-3.147-2.698-7.189-1.35-10.331,1.799c-3.148,3.586-3.148,7.632,0,10.318c3.142,2.698,7.184,1.349,10.331-1.786
			C163.524,421.141,163.975,416.656,160.832,414.408z M196.766,443.152c-1.35,2.698-4.491,3.147-7.639,1.799
			c0.449,2.248,1.349,9.881,1.799,11.23l0.449,0.899l-0.899,1.349c-1.799-1.349-4.041-2.248-5.84-3.147
			c0-3.598-0.45-8.982-0.894-12.13l-1.349-0.899l-0.9,1.799c-1.349,1.799-2.248,3.585-2.698,4.935l1.35,1.349l-0.899,1.35
			c-1.349-0.899-2.692-1.799-4.041-2.698s-2.692-1.787-4.491-2.687l0.9-1.349l1.792,0.899c1.35-1.35,2.249-3.147,3.598-4.947
			l3.142-5.384c1.349-1.799,2.249-3.598,3.148-4.946l-1.35-1.35l0.899-1.35c0.899,0.899,2.242,1.35,3.143,2.25
			c1.349,0.898,2.691,1.348,4.041,2.248c1.349,0.898,2.698,1.349,4.047,2.248C198.564,437.318,198.564,440.467,196.766,443.152z
			 M190.026,435.52c-1.35-0.899-1.793-0.899-2.692-1.35c-0.45,0.9-1.349,2.248-2.249,3.599l-0.899,1.348
			c0.45,0.45,0.899,0.9,1.35,1.351c2.698,1.786,4.94,1.786,6.289-0.45C192.725,438.218,192.274,436.868,190.026,435.52z
			 M224.167,459.779c-0.45,4.035-0.9,9.868-0.9,12.118l1.35,0.898l-0.449,1.35c-1.349-0.9-3.143-1.35-4.491-2.248
			c-1.35-0.9-3.147-1.35-4.491-1.8l0.45-1.337l1.793,0.438c0.449-1.787,0.898-4.485,0.898-6.285l-6.289-2.686l-4.041,4.935
			l1.349,0.899l-0.45,1.35c-1.349-0.45-2.697-1.35-3.591-1.8c-0.899-0.449-2.248-0.898-3.147-1.348l0.449-1.351l1.799,0.45
			c3.592-2.686,9.881-9.432,14.372-14.378c1.799,0.45,3.142,0.45,4.49,0.899l1.8,1.35L224.167,459.779z M219.676,451.685
			L219.676,451.685l-5.391,6.296l4.491,2.248L219.676,451.685z M285.715,467.412c-0.9-1.8-1.799-3.147-2.698-5.385l-2.249-5.396
			c-0.899-2.248-1.798-3.598-2.248-5.396l1.799-0.9l-0.45-1.349c-1.349,0.899-3.148,1.349-4.496,2.249
			c-1.351,0.449-3.148,1.349-4.497,1.798l0.45,1.35l1.798-0.45c0.898,1.799,1.799,3.148,2.698,5.396l2.249,5.385
			c0.899,2.248,1.348,3.597,2.248,5.384l-1.799,0.899l0.45,1.349c1.349-0.898,3.146-1.349,4.496-2.248
			c1.349-0.45,3.136-1.337,4.485-1.787l-0.45-1.349L285.715,467.412z M324.34,446.75c-0.898-1.349-2.248-3.148-3.148-4.947
			l-3.146-5.385c-1.35-1.798-2.249-3.596-2.698-4.946l1.349-1.348l-0.899-1.351c-1.349,0.9-2.687,1.8-3.586,2.249
			c-1.349,0.899-2.697,1.35-4.047,2.248c0.899,2.698,2.698,13.479,3.147,15.716c-2.248-1.787-10.33-8.083-12.13-10.319
			c-1.349,0.899-2.697,1.8-3.597,2.236c-1.35,0.899-2.698,1.35-4.035,2.249l0.887,1.349l1.799-0.449l1.35,2.698
			c1.349,2.687,6.295,10.78,7.194,13.029l-1.348,1.349l0.898,1.338c0.899-0.438,2.248-1.338,3.147-1.787
			c0.9-0.45,2.248-1.35,3.136-1.799l-0.888-1.35l-1.798,0.899c-0.899-1.349-2.248-3.147-3.148-4.946l-1.798-3.148
			c-1.35-2.698-2.698-4.484-3.148-5.384l0,0c7.645,6.733,12.13,9.881,13.929,11.68l2.687-1.799l-3.586-17.964l0,0
			c0.449,0.9,1.799,2.698,3.147,5.385l1.787,3.148c1.35,1.798,1.799,3.585,2.697,5.384l-1.348,1.35l0.449,1.349
			c1.349-0.899,2.698-1.799,4.047-2.698c1.35-0.899,3.148-1.799,4.497-2.698l-0.449-1.337H324.34z M345.002,431.022
			c-1.35-1.349-2.698-2.698-4.047-4.497l-2.698-3.585c-1.35-1.35-2.686-3.147-3.586-4.936c0.45-0.449,0.9-1.349,1.787-1.798
			c2.248-1.799,4.047-1.35,5.396,0c1.35,1.798,1.798,4.035-0.45,5.384c-0.449,0.45-0.899,0.899-1.349,0.899l0.899,2.698
			c0.899-0.449,1.799-1.35,2.697-1.799c4.498-3.597,4.498-8.082,2.249-11.23c-2.249-2.698-5.846-3.147-9.443,0
			c-0.887,0.899-1.787,1.799-3.136,2.698c-1.35,1.35-2.698,2.248-3.598,3.147c-0.888,0.888-2.236,1.788-3.586,2.688l0.899,0.898
			l1.799-0.898c1.338,1.349,2.686,2.697,4.036,4.496l3.585,4.936c1.35,1.798,2.698,3.146,3.598,4.496l-1.35,1.349l0.899,0.899
			c1.35-0.899,2.698-2.248,4.047-3.147c1.35-0.898,2.698-1.799,4.498-3.597l-0.9-0.9L345.002,431.022z M380.479,398.681l0.899,0.899
			c-1.349,0.899-2.236,2.248-3.586,3.598c-1.349,1.337-2.248,2.686-3.597,3.586l-0.899-0.9l0.899-1.349
			c-1.337-0.887-4.035-2.236-5.835-3.136l-4.946,4.935l3.148,5.396l1.35-0.899l0.898,0.899c-0.898,0.899-1.798,1.799-2.698,2.698
			c-0.898,0.899-1.798,1.799-2.248,2.697l-0.9-0.898l0.9-1.35c-1.349-4.047-5.847-12.579-8.532-18.413
			c0.899-1.35,1.799-2.698,2.236-4.048l1.8-0.899l8.094,3.598c3.597,1.799,8.981,4.035,10.78,4.485L380.479,398.681z
			 M366.563,400.029l-7.645-3.585l0,0l4.046,7.184L366.563,400.029z M403.391,369.486l0.899,0.899
			c-1.35,1.799-2.698,3.598-3.586,5.385c-4.047,0-9.432-0.438-12.58-0.438l-0.898,1.337l1.349,1.35
			c1.799,1.349,3.147,2.249,4.946,3.148l1.337-1.35l1.35,0.899c-0.899,1.349-2.236,2.687-3.136,4.035
			c-0.899,1.35-1.799,2.698-3.147,4.048l-1.35-0.899l0.899-1.799c-1.35-1.35-2.698-2.249-4.497-3.598l-4.946-3.586
			c-1.787-1.349-3.136-2.249-4.936-3.586l-1.349,1.337l-1.337-0.898c0.888-0.888,1.787-1.787,2.237-3.137
			c0.898-1.349,1.798-2.248,2.698-3.597c0.898-1.35,1.798-2.249,2.686-3.598c3.598-4.936,6.745-4.497,8.993-2.698
			c2.249,1.799,2.698,4.946,1.35,7.645c2.249,0,9.881-0.449,11.219-0.449L403.391,369.486z M386.775,367.688
			c-1.349-1.349-3.147-0.899-4.497,1.35c-0.899,0.899-1.349,1.799-1.799,2.248c0.899,0.45,1.799,1.799,3.598,2.698l1.35,0.899
			c0.449-0.449,0.899-0.899,1.349-1.35C388.574,371.285,388.574,369.486,386.775,367.688z M418.668,348.825
			c-4.035,6.732-9.881,8.531-15.728,4.935c-5.385-3.137-7.183-9.432-3.136-16.166c4.036-6.733,9.432-8.532,15.727-4.946
			C420.916,335.346,422.703,342.079,418.668,348.825z M412.384,337.594c-4.047-2.248-8.094-1.798-10.343,1.338
			c-2.236,3.597-0.449,7.195,3.598,9.894c4.048,2.248,8.095,1.798,10.343-1.351C418.218,343.879,416.432,339.83,412.384,337.594z
			 M249.77,464.714c-2.242,0-4.491,2.248-4.491,4.934c0,2.698,2.249,4.948,4.491,4.948c2.697,0,4.939-2.25,4.939-4.948
			C254.709,466.962,252.467,464.714,249.77,464.714z M74.587,315.134c2.692,0,4.94-2.249,4.94-4.497c0-2.686-2.248-4.936-4.94-4.936
			c-2.698,0-4.497,2.25-4.497,4.936C70.09,312.885,72.339,315.134,74.587,315.134z M425.851,315.134
			c2.698,0,4.947-2.249,4.947-4.497c0-2.686-2.249-4.936-4.947-4.936c-2.248,0-4.484,2.25-4.484,4.936
			C420.916,312.885,423.153,315.134,425.851,315.134z"/>
	</g>
</g>
</svg>
